<?xml version="1.0" encoding="utf-8"?>
<!-- Generator: Adobe Illustrator 23.0.3, SVG Export Plug-In . SVG Version: 6.00 Build 0)  -->
<svg version="1.1" id="iconmonstr_1_" xmlns="http://www.w3.org/2000/svg" xmlns:xlink="http://www.w3.org/1999/xlink" x="0px"
	 y="0px" viewBox="0 0 24 24" style="enable-background:new 0 0 24 24;" xml:space="preserve">
<style type="text/css">
	.st0{fill:#CCCCCC;}
</style>
<g id="instagram-9">
	<g>
		<path class="st0" d="M12,14.69c1.49,0,2.69-1.21,2.69-2.69S13.49,9.31,12,9.31c-1.49,0-2.69,1.2-2.69,2.69S10.51,14.69,12,14.69z
			 M16.26,11.4c0.03,0.2,0.05,0.4,0.05,0.6c0,2.38-1.93,4.31-4.31,4.31S7.69,14.38,7.69,12c0-0.2,0.02-0.4,0.05-0.6
			c0.03-0.19,0.07-0.38,0.12-0.57H6.75v5.88c0,0.3,0.24,0.54,0.54,0.54h9.42c0.3,0,0.54-0.24,0.54-0.54v-5.88h-1.11
			C16.19,11.02,16.23,11.21,16.26,11.4z M12,0C5.37,0,0,5.37,0,12s5.37,12,12,12s12-5.37,12-12S18.63,0,12,0z M19,17.38
			c0,0.89-0.72,1.62-1.62,1.62H6.62C5.72,19,5,18.28,5,17.38V6.62C5,5.72,5.72,5,6.62,5h10.77C18.28,5,19,5.72,19,6.62V17.38z
			 M16.71,6.75h-1.27c-0.3,0-0.54,0.24-0.54,0.54v1.27c0,0.3,0.24,0.54,0.54,0.54h1.27c0.3,0,0.54-0.24,0.54-0.54V7.29
			C17.25,6.99,17.01,6.75,16.71,6.75z"/>
	</g>
</g>
</svg>
