<?xml version="1.0" encoding="utf-8"?>
<!-- Generator: Adobe Illustrator 23.0.3, SVG Export Plug-In . SVG Version: 6.00 Build 0)  -->
<svg version="1.1" id="Layer_1_2_" xmlns="http://www.w3.org/2000/svg" xmlns:xlink="http://www.w3.org/1999/xlink" x="0px" y="0px"
	 viewBox="0 0 24 24" style="enable-background:new 0 0 24 24;" xml:space="preserve">
<style type="text/css">
	.st0{fill-rule:evenodd;clip-rule:evenodd;fill:#CCCCCC;}
</style>
<g id="Layer_1_1_">
	<g>
		<path class="st0" d="M11.5,18h1V9h-1V18z M12,0C5.38,0,0,5.38,0,12s5.38,12,12,12s12-5.38,12-12S18.62,0,12,0z M12,23
			C5.93,23,1,18.07,1,12S5.93,1,12,1s11,4.93,11,11S18.07,23,12,23z M12,6c-0.47,0-0.84,0.38-0.84,0.84S11.53,7.69,12,7.69
			s0.84-0.38,0.84-0.84S12.47,6,12,6z"/>
	</g>
</g>
</svg>
