<?xml version="1.0" encoding="utf-8"?>
<!-- Generator: Adobe Illustrator 23.0.3, SVG Export Plug-In . SVG Version: 6.00 Build 0)  -->
<svg version="1.1" id="Layer_1_2_" xmlns="http://www.w3.org/2000/svg" xmlns:xlink="http://www.w3.org/1999/xlink" x="0px" y="0px"
	 viewBox="0 0 24 24" style="enable-background:new 0 0 24 24;" xml:space="preserve">
<style type="text/css">
	.st0{fill-rule:evenodd;clip-rule:evenodd;fill:#CCCCCC;}
</style>
<g id="Layer_1_1_">
	<g>
		<path class="st0" d="M12,0C5.38,0,0,5.38,0,12s5.38,12,12,12s12-5.38,12-12S18.62,0,12,0z M12,23C5.93,23,1,18.07,1,12
			S5.93,1,12,1s11,4.93,11,11S18.07,23,12,23z M12.05,16.31c-0.47,0-0.84,0.38-0.84,0.84S11.59,18,12.05,18s0.84-0.38,0.84-0.84
			S12.52,16.31,12.05,16.31z M12.11,6c-1.96,0-3.64,1.17-3.92,3.41l1.02,0.1C9.52,7.88,10.7,7,12.14,7c2.35,0,2.99,1.95,2.27,3.18
			c-0.34,0.58-1.45,1.49-1.95,2.06c-0.76,0.89-0.97,1.78-0.94,2.94h1c0.01-0.71,0.15-1.53,0.57-2.09c0.81-1.09,2.64-2.06,2.64-3.87
			C15.73,7.25,14.08,6,12.11,6z"/>
	</g>
</g>
</svg>
