<?xml version="1.0" encoding="utf-8"?>
<!-- Generator: Adobe Illustrator 23.0.3, SVG Export Plug-In . SVG Version: 6.00 Build 0)  -->
<svg version="1.1" id="iconmonstr_1_" xmlns="http://www.w3.org/2000/svg" xmlns:xlink="http://www.w3.org/1999/xlink" x="0px"
	 y="0px" viewBox="0 0 24 24" style="enable-background:new 0 0 24 24;" xml:space="preserve">
<style type="text/css">
	.st0{fill:#CCCCCC;}
</style>
<g id="facebook-4">
	<g>
		<path class="st0" d="M12,0C5.37,0,0,5.37,0,12s5.37,12,12,12s12-5.37,12-12S18.63,0,12,0z M15,8c0,0-0.92,0-1.35,0
			C13.11,8,13,8.22,13,8.78C13,9.24,13,10,13,10h2l-0.21,2H13v7h-3v-7H8v-2h2c0,0,0-0.77,0-2.31C10,5.92,10.93,5,13.03,5
			C13.37,5,15,5,15,5V8z"/>
	</g>
</g>
</svg>
