<?xml version="1.0" encoding="utf-8"?>
<!-- Generator: Adobe Illustrator 23.0.3, SVG Export Plug-In . SVG Version: 6.00 Build 0)  -->
<svg version="1.1" id="Layer_1_2_" xmlns="http://www.w3.org/2000/svg" xmlns:xlink="http://www.w3.org/1999/xlink" x="0px" y="0px"
	 viewBox="0 0 24 24" style="enable-background:new 0 0 24 24;" xml:space="preserve">
<style type="text/css">
	.st0{fill-rule:evenodd;clip-rule:evenodd;fill:#CCCCCC;}
</style>
<g id="Layer_1_1_">
	<g>
		<path class="st0" d="M12,0C5.38,0,0,5.38,0,12s5.38,12,12,12s12-5.38,12-12S18.62,0,12,0z M12,23c-3.22,0-6.12-1.39-8.13-3.59
			c0.28-0.4,0.77-0.65,1.62-0.85c3.75-0.88,4.1-1.48,4.36-2.07c0.26-0.57,0.18-1.23-0.22-1.97C7.9,11.31,7.53,8.55,8.59,6.76
			C9.27,5.63,10.48,5,12,5c1.51,0,2.71,0.61,3.38,1.73c1.06,1.77,0.7,4.53-1.03,7.79c-0.4,0.75-0.46,1.41-0.21,1.98
			c0.26,0.56,0.5,1.15,4.35,2.06c0.85,0.2,1.34,0.45,1.62,0.85C18.11,21.62,15.22,23,12,23z M18.73,17.59
			c-2.02-0.46-3.36-0.83-3.67-1.5c-0.13-0.27-0.07-0.63,0.18-1.09c1.9-3.58,2.25-6.7,1-8.77C15.39,4.81,13.85,4,12,4
			c-1.86,0-3.42,0.82-4.27,2.25C6.48,8.35,6.84,11.46,8.76,15c0.25,0.46,0.31,0.82,0.19,1.09c-0.3,0.67-1.65,1.04-3.68,1.5
			c-1,0.23-1.64,0.59-2.05,1.04C1.83,16.78,1,14.49,1,12C1,5.93,5.93,1,12,1s11,4.93,11,11c0,2.49-0.83,4.78-2.22,6.63
			C20.37,18.17,19.73,17.82,18.73,17.59z"/>
	</g>
</g>
</svg>
