<?xml version="1.0" encoding="utf-8"?>
<!-- Generator: Adobe Illustrator 23.0.3, SVG Export Plug-In . SVG Version: 6.00 Build 0)  -->
<svg version="1.1" id="Layer_1" xmlns="http://www.w3.org/2000/svg" xmlns:xlink="http://www.w3.org/1999/xlink" x="0px" y="0px"
	 viewBox="0 0 197.33 115.33" style="enable-background:new 0 0 197.33 115.33;" xml:space="preserve">
<style type="text/css">
	.st0{fill:#333333;}
	.st1{font-family:'ArialMT';}
	.st2{font-size:40px;}
</style>
<path class="st0" d="M132.92,49.16c21.75-19.25,48.5-7.5,48.5-7.5l-5.5-11l9.25-5.75c-10.85-14.87-28.48-17.94-42.77-16.24
	c-6.52-5.05-21.96-12.64-38.98,10.24c0,0,8.73-2.97,14.66-0.87c-6.9,5.15-12.32,12.2-14.33,20.35l-11.04-7.16
	c-0.46-0.3-1.08-0.17-1.38,0.29l-1.9,2.94c-0.3,0.46-0.17,1.08,0.3,1.38l13.2,8.56c0,0,0,0,0,0c-0.22,7.08,1.04,13.26,3.14,18.6
	c1.44-5.14,3.28-9.45,5.4-13.07l5.73,3.72c-4.21,7.48-5.3,15.06-5.53,19.58c8.54,11.89,20.26,17.17,20.26,17.17
	c2.5,19.25,21.5,21.75,21.5,21.75c-9.5-10-8-16.5-8-16.5c4-12.25,20-13.5,20-13.5c-16-8-31,2.75-31,2.75
	c-3.52-0.83-17.13-11.58-9.4-26.18l12.11,7.85c0.46,0.3,1.08,0.17,1.38-0.29l1.9-2.94c0.3-0.46,0.17-1.08-0.3-1.38l-12.04-7.81
	C129.4,52.53,131,50.86,132.92,49.16z M114.53,45.38c14.26-18.35,36.39-12.97,36.39-12.97c-15.57,2.55-25,9.22-30.7,16.66
	L114.53,45.38z"/>
<text transform="matrix(1 0 0 1 2.9167 73.6178)" class="st0 st1 st2">Smile</text>
<text transform="matrix(1 0 0 1 145.4167 73.6178)" class="st0 st1 st2">ish</text>
</svg>
